<svg width="97" height="55" viewBox="0 0 97 55" fill="none" xmlns="http://www.w3.org/2000/svg">
<path d="M0.773438 54.2592C1.00206 53.7933 1.11853 53.5776 1.25225 53.3016C2.73612 50.2991 4.26314 47.3226 5.74701 44.3374C6.08779 43.6299 6.31209 43.2287 7.11442 43.2287C19.9431 43.2115 33.4058 43.2762 46.2301 43.2374C49.6681 43.2287 53.1491 43.246 56.5827 43.2374C60.2968 43.2287 61.8022 41.4169 63.4241 38.065C64.1057 36.6501 66.0468 32.7935 66.806 31.4217C66.9915 31.0852 67.6773 30.3691 68.1777 30.3691C71.8399 30.3691 76.0888 30.3778 79.5828 30.3691C79.8373 30.3691 80.2299 30.3691 80.7605 30.3691C80.562 30.7746 78.8625 34.23 78.7115 34.5363C77.2018 37.5905 75.4634 40.5067 73.9493 43.5695C70.3561 50.4674 64.7527 54.0392 57.0184 54.1169C39.7166 54.2894 22.5183 54.2031 5.21644 54.2549C4.01294 54.2549 2.12791 54.2549 0.773438 54.2722V54.2592Z" fill="url(#paint0_linear_269_753)"/>
<path d="M8.26953 39.1524C8.4507 38.7382 8.61462 38.4535 8.74403 38.1947C10.3357 34.9809 20.7703 13.9293 22.3664 10.7112C25.9035 4.18432 32.6457 0.340681 40.0607 0.189696C50.0683 -0.013055 61.8875 -0.0432519 70.5967 0.0516528C78.7753 0.0214558 86.6001 0.0818497 94.7787 0.0516528C95.2101 0.0516528 95.6587 0.0300835 96.2281 0.0516528C96.0124 0.491665 95.7881 0.97913 95.6371 1.2811C94.1532 4.28354 92.4321 7.28598 90.9784 10.3014C90.6592 10.9657 90.2537 11.1814 89.5377 11.1814C77.0973 11.2029 64.8682 11.2331 52.4278 11.272C48.4895 11.2849 44.5512 11.2892 40.6086 11.3237C37.0973 11.3539 34.5911 13.0234 32.9994 16.1121C32.2402 17.5874 22.8452 36.9092 22.0428 38.3586C21.8574 38.6951 21.344 39.0402 20.9731 39.0488C17.5093 39.1135 14.0411 39.1092 10.5773 39.1179C10.3228 39.1179 8.71384 39.1998 8.27385 39.1481L8.26953 39.1524Z" fill="url(#paint1_linear_269_753)"/>
<path d="M88.5895 15.2925C86.8252 18.804 84.6857 22.5613 83.2751 25.4041C83.0293 25.8959 82.5289 26.2065 81.9811 26.2065C75.4632 26.2281 68.9497 26.2497 62.4318 26.2712C58.4935 26.2842 55.3619 26.1375 51.4235 26.1677C47.9123 26.1979 45.3371 28.2297 43.741 31.3141C43.452 31.8706 42.1321 34.5883 40.3203 38.2939C40.0788 38.79 39.5698 39.1092 39.0176 39.1092C37.0636 39.1136 34.4107 39.1567 32.4394 39.1653C30.7096 39.1696 29.7952 39.0877 26.6074 39.1049C30.3818 31.0812 34.8378 21.5174 35.804 19.7357C38.7675 14.654 40.8897 15.7843 50 15.3399C60.3268 15.3486 70.2136 15.2968 80.0356 15.3486C82.8265 15.3486 85.7511 15.2925 88.5895 15.2925Z" fill="url(#paint2_linear_269_753)"/>
<defs>
<linearGradient id="paint0_linear_269_753" x1="-53.8108" y1="166.264" x2="108.517" y2="-45.3298" gradientUnits="userSpaceOnUse">
<stop offset="0.13" stop-color="#061532"/>
<stop offset="1" stop-color="#278E68"/>
</linearGradient>
<linearGradient id="paint1_linear_269_753" x1="-59.5532" y1="161.86" x2="102.775" y2="-49.734" gradientUnits="userSpaceOnUse">
<stop offset="0.13" stop-color="#061532"/>
<stop offset="1" stop-color="#278E68"/>
</linearGradient>
<linearGradient id="paint2_linear_269_753" x1="-51.8828" y1="167.74" x2="110.441" y2="-43.8499" gradientUnits="userSpaceOnUse">
<stop offset="0.13" stop-color="#061532"/>
<stop offset="1" stop-color="#278E68"/>
</linearGradient>
</defs>
</svg>
