<svg width="360" height="55" viewBox="0 0 360 55" fill="none" xmlns="http://www.w3.org/2000/svg">
<g clip-path="url(#clip0_247_85)">
<path d="M0.773438 54.2573C1.00206 53.7914 1.11853 53.5757 1.25225 53.2997C2.73612 50.2972 4.26314 47.3207 5.74701 44.3355C6.08779 43.628 6.31209 43.2268 7.11442 43.2268C19.9431 43.2096 33.4058 43.2743 46.2301 43.2355C49.6681 43.2268 53.1491 43.2441 56.5827 43.2355C60.2968 43.2268 61.8022 41.415 63.4241 38.0631C64.1057 36.6482 66.0468 32.7916 66.806 31.4198C66.9915 31.0833 67.6773 30.3672 68.1777 30.3672C71.8399 30.3672 76.0888 30.3759 79.5828 30.3672C79.8373 30.3672 80.2299 30.3672 80.7605 30.3672C80.562 30.7727 78.8625 34.2281 78.7115 34.5344C77.2018 37.5886 75.4634 40.5048 73.9493 43.5676C70.3561 50.4655 64.7527 54.0373 57.0184 54.115C39.7166 54.2875 22.5183 54.2012 5.21644 54.253C4.01294 54.253 2.12791 54.253 0.773438 54.2703V54.2573Z" fill="url(#paint0_linear_247_85)"/>
<path d="M8.26953 39.1524C8.4507 38.7382 8.61462 38.4535 8.74403 38.1947C10.3357 34.9809 20.7703 13.9293 22.3664 10.7112C25.9035 4.18432 32.6457 0.340681 40.0607 0.189696C50.0683 -0.013055 61.8875 -0.0432519 70.5967 0.0516528C78.7753 0.0214558 86.6001 0.0818497 94.7787 0.0516528C95.2101 0.0516528 95.6587 0.0300835 96.2281 0.0516528C96.0124 0.491665 95.7881 0.97913 95.6371 1.2811C94.1532 4.28354 92.4321 7.28598 90.9784 10.3014C90.6592 10.9657 90.2537 11.1814 89.5377 11.1814C77.0973 11.2029 64.8682 11.2331 52.4278 11.272C48.4895 11.2849 44.5512 11.2892 40.6086 11.3237C37.0973 11.3539 34.5911 13.0234 32.9994 16.1121C32.2402 17.5874 22.8452 36.9092 22.0428 38.3586C21.8574 38.6951 21.344 39.0402 20.9731 39.0488C17.5093 39.1135 14.0411 39.1092 10.5773 39.1179C10.3228 39.1179 8.71384 39.1998 8.27385 39.1481L8.26953 39.1524Z" fill="url(#paint1_linear_247_85)"/>
<path d="M88.5895 15.293C86.8252 18.8045 84.6857 22.5618 83.2751 25.4046C83.0293 25.8964 82.5289 26.207 81.9811 26.207C75.4632 26.2286 68.9497 26.2502 62.4318 26.2717C58.4935 26.2847 55.3619 26.138 51.4235 26.1682C47.9123 26.1984 45.3371 28.2302 43.741 31.3146C43.452 31.8711 42.1321 34.5888 40.3203 38.2944C40.0788 38.7905 39.5698 39.1097 39.0176 39.1097C37.0636 39.1141 34.4107 39.1572 32.4394 39.1658C30.7096 39.1701 29.7952 39.0882 26.6074 39.1054C30.3818 31.0817 34.8378 21.5179 35.804 19.7362C38.7675 14.6545 40.8897 15.7848 50 15.3404C60.3268 15.3491 70.2136 15.2973 80.0356 15.3491C82.8265 15.3491 85.7511 15.293 88.5895 15.293Z" fill="url(#paint2_linear_247_85)"/>
</g>
<g clip-path="url(#clip1_247_85)">
<path d="M110.892 42.9993C101.532 42.9993 95.5963 36.6321 97.2872 27.1244C98.9738 17.6167 107.131 11.2969 116.491 11.2969H141.756L140.255 19.5838L117.501 19.4975C112.915 19.4975 108.718 22.3921 107.899 27.1201C107.079 31.848 110.215 34.7901 114.8 34.7901H127.444L128.216 30.3037H116.491L117.798 23.0176H139.638L136.032 42.995H110.892V42.9993Z" fill="url(#paint3_linear_247_85)"/>
<path d="M182.684 11.2969L172.263 23.9882C171.939 23.9882 171.646 23.7984 171.508 23.5094L165.844 11.3012H152.316L153.904 14.0491C154.02 14.213 154.124 14.3899 154.219 14.5797C154.219 14.5883 154.249 14.6444 154.305 14.7393L154.331 14.7825C155.358 16.6461 163.329 30.6962 165.365 34.3155L165.046 36.1101L163.821 42.9993H173.859L175.498 33.8324L196.099 11.2969H182.684Z" fill="url(#paint4_linear_247_85)"/>
<path d="M246.469 11.2969L231.992 31.9473L224.853 11.2969H211.641L210.554 17.5908C210.537 17.7763 210.511 17.9618 210.476 18.1516L208.686 28.3969L206.637 40.1306L206.137 43.0036H216.174L218.737 28.4444C218.909 27.4781 220.251 27.3573 220.587 28.2848L225.923 42.9562H234.464L244.567 28.4401C245.153 27.5946 246.477 28.1424 246.301 29.1562L243.872 42.9562H253.91L259.505 11.3012H246.477L246.469 11.2969Z" fill="url(#paint5_linear_247_85)"/>
<path d="M303.645 11.2969H289.613L278.958 27.064L268.377 42.9519H279.717L283.72 36.6795H299.978L301.57 42.9519H313.536L303.645 11.2969ZM288.301 29.3417L295.009 18.6304C295.294 18.6304 295.54 18.8245 295.609 19.1006L298.145 29.346H288.301V29.3417Z" fill="url(#paint6_linear_247_85)"/>
<path opacity="0.23" d="M208.686 28.3984L206.658 40.132H206.637L208.686 28.3984Z" fill="url(#paint7_linear_247_85)"/>
<path d="M326.655 11.2969L325.162 19.5493H337.469L333.319 42.9993H343.357L347.507 19.5493H358.506L359.999 11.2969H326.655Z" fill="url(#paint8_linear_247_85)"/>
</g>
<defs>
<linearGradient id="paint0_linear_247_85" x1="-53.8108" y1="166.262" x2="108.517" y2="-45.3317" gradientUnits="userSpaceOnUse">
<stop offset="0.13" stop-color="#061532"/>
<stop offset="1" stop-color="#278E68"/>
</linearGradient>
<linearGradient id="paint1_linear_247_85" x1="-59.5532" y1="161.86" x2="102.775" y2="-49.734" gradientUnits="userSpaceOnUse">
<stop offset="0.13" stop-color="#061532"/>
<stop offset="1" stop-color="#278E68"/>
</linearGradient>
<linearGradient id="paint2_linear_247_85" x1="-51.8828" y1="167.74" x2="110.441" y2="-43.8494" gradientUnits="userSpaceOnUse">
<stop offset="0.13" stop-color="#061532"/>
<stop offset="1" stop-color="#278E68"/>
</linearGradient>
<linearGradient id="paint3_linear_247_85" x1="101.847" y1="52.5847" x2="264.171" y2="-159.004" gradientUnits="userSpaceOnUse">
<stop offset="0.13" stop-color="#061532"/>
<stop offset="1" stop-color="#278E68"/>
</linearGradient>
<linearGradient id="paint4_linear_247_85" x1="128.117" y1="72.739" x2="290.441" y2="-138.851" gradientUnits="userSpaceOnUse">
<stop offset="0.13" stop-color="#061532"/>
<stop offset="1" stop-color="#278E68"/>
</linearGradient>
<linearGradient id="paint5_linear_247_85" x1="171.973" y1="106.387" x2="334.297" y2="-105.206" gradientUnits="userSpaceOnUse">
<stop offset="0.13" stop-color="#061532"/>
<stop offset="1" stop-color="#278E68"/>
</linearGradient>
<linearGradient id="paint6_linear_247_85" x1="215.285" y1="139.613" x2="377.613" y2="-71.9772" gradientUnits="userSpaceOnUse">
<stop offset="0.13" stop-color="#061532"/>
<stop offset="1" stop-color="#278E68"/>
</linearGradient>
<linearGradient id="paint7_linear_247_85" x1="159.619" y1="96.9109" x2="321.942" y2="-114.683" gradientUnits="userSpaceOnUse">
<stop offset="0.13" stop-color="#061532"/>
<stop offset="1" stop-color="#278E68"/>
</linearGradient>
<linearGradient id="paint8_linear_247_85" x1="236.345" y1="155.768" x2="398.669" y2="-55.8217" gradientUnits="userSpaceOnUse">
<stop offset="0.13" stop-color="#061532"/>
<stop offset="1" stop-color="#278E68"/>
</linearGradient>
<clipPath id="clip0_247_85">
<rect width="97" height="55" fill="white"/>
</clipPath>
<clipPath id="clip1_247_85">
<rect width="263" height="33" fill="white" transform="translate(97 11)"/>
</clipPath>
</defs>
</svg>
